<?xml version="1.0" encoding="utf-8"?>
<!-- Generator: Adobe Illustrator 24.0.3, SVG Export Plug-In . SVG Version: 6.00 Build 0)  -->
<svg version="1.1" id="Layer_1" xmlns="http://www.w3.org/2000/svg" xmlns:xlink="http://www.w3.org/1999/xlink" x="0px" y="0px"
	 viewBox="0 0 710.1 324" style="enable-background:new 0 0 710.1 324;" xml:space="preserve">
<style type="text/css">
	.st0{fill:#231F20;}
</style>
<title>NateWalker_logo</title>
<g>
	<g>
		<path class="st0" d="M174.1,183.6c0,1.4-1.1,2.5-2.5,2.6l-49.6,0.5c-2.2-0.3-4.1-1.4-5.6-3c-15.8-19.9-38-58.6-48.7-78.6
			c-0.7-1.4-2.1-2.4-3.7-2.5c-1.9,0-3.5,1.6-3.5,4.4l-5.8,80.7c-0.2,1.4-1.4,2.3-2.8,2.3L2.3,187C1,187,0,186,0,184.7
			C5.1,140,9.3,63.5,9.7,7.4c0-1.4,1.2-2.1,2.5-2.1l60.5,2.5c1.9,0.2,4.2,1.6,4.6,3c8.8,21.8,23.6,64.4,38.2,86
			c0.9,1.6,2.1,2.8,3.2,2.8c1.9,0,3.2-1.9,3.2-4.4l0.9-92.7c0-1.1,0.9-2.1,2.1-2.1c0,0,0,0,0,0c9.3,1.9,22,2.8,34.1,2.8
			c7,0,12.7-0.7,19.7-0.9c1.2-0.2,1.6,1.6,1.6,2.3L174.1,183.6z"/>
		<path class="st0" d="M375.7,181.5l-42.2,5.8h-0.7c-2.1,0-4.9-1.2-5.3-3.2l-7.9-25.3c-0.5-2.1-3.2-3.5-5.6-3.5h-0.5l-50.8,4.9
			c-2.5,0.4-4.7,1.9-5.8,4.2l-10.9,24.3c-0.9,2-2.9,3.3-5.1,3.2h-0.9l-43.3-7.4c-1.6-0.2-2.8-1.6-2.8-3.2c0-0.5,0-1,0.2-1.4
			l72.1-175c1.1-2.3,3.3-3.8,5.8-3.9h0.2l63.3,1.9c2.5,0.2,4.6,2,5.1,4.4c9.5,56.8,25.5,127.9,38.5,169.7v0.9
			C379.2,179.7,377.6,181.3,375.7,181.5z M304.5,112.6l-8.3-35.2c-0.2-1.2-0.7-1.6-1.2-1.6s-0.9,0.5-1.4,1.4l-16.5,36.6
			c-0.2,0.5-0.3,1.1-0.2,1.6c0,1.4,0.9,2.3,2.8,2.3l21.6-0.9c1.7,0,3.2-1.3,3.2-3.1c0-0.1,0-0.1,0-0.2L304.5,112.6z"/>
		<path class="st0" d="M527.7,40.8c-1.2,4.2-3,3-6,3c-6.5,0-34.8,0.7-38.7,3.9c-7.6,6.3-7,115.9-7,133.5c0,2.8-1.9,4.4-4.6,4.4
			c-15.1,0-30.1,1.6-45.4,1.6c-3.7,0-5.3-3-5.3-6.3c0-42.6,3.7-85.3,3.7-127.9c0-4.2-0.9-4.6-5.1-4.6c-18.3,0-21.1,1.9-39.4,1.9
			c-2.3,0-4.2-0.9-4.2-3.7c0-13,1.6-26,1.6-39.2c0-3,1.9-3.2,4.9-3.2c36.9,0,64.2-0.2,100.8-1.9C498.3,1.6,513.4,0,528.7,0
			c1.6,0,2.8,0,2.8,1.9C531.4,13.9,531,29.4,527.7,40.8z"/>
		<path class="st0" d="M689.3,176.6l-127.9,10.7c-2.8,0.2-4.2-2.1-4.6-4.6c-3.5-23.2-3.5-54.2-3.5-77.9c0-29.2,0.5-69.3,6-97.6
			c0.5-2.8,2.1-5.1,5.1-5.1l119.4,2.1c2.4,0,4.4,2,4.4,4.4c0,0,0,0,0,0c0,7-3.2,23.6-4.2,31.5c-0.4,2.8-2.7,4.9-5.6,5.1l-60.5,3.5
			c-2.9,0.2-5.4,2.3-6,5.1c-0.9,4.6-3.7,17.6-3.7,22c0,2.1,1.7,3.7,3.7,3.7c0.1,0,0.2,0,0.2,0c22.2,0,45-3,67.2-3
			c2.6,0.1,4.6,2.3,4.6,4.9L683,108c-0.2,2.8-2.3,5.2-5.1,5.6l-66.5,7.6c-2.8,0.2-4.6,4.4-4.6,7.2c0,3.5,0.7,9,5.3,8.8l75.3-2.5
			c2.7,0.2,4.8,2.2,5.1,4.9c0.5,11.1,1.4,20.9,1.4,32C693.8,174.1,691.9,176.3,689.3,176.6z"/>
	</g>
	<g>
		<path class="st0" d="M168.9,215.6l-42.7,97.8c-0.8,1.6-2.3,2.6-4,2.7l-25.7,1.3h-0.1c-1.6,0-3-1.1-3.4-2.6l-11.2-56.2
			c-0.1-0.7-0.6-1.1-0.9-1.1c-0.3,0-0.6,0.3-0.9,1.1l-17.4,56.7c-0.6,1.5-2,2.5-3.6,2.6h-0.1L28,316.7c-1.7-0.2-3-1.4-3.4-3L0.2,208
			v-0.6c0-1.3,1-2.3,2.2-2.3c0,0,0,0,0.1,0l28.3-1.6h0.1c1.6,0.2,2.9,1.2,3.3,2.7l12.9,62.2c0.1,0.9,0.4,1.3,0.7,1.3
			s0.6-0.4,0.9-1.1l20.4-62.9c0.6-1.3,1.9-2.2,3.3-2.3H73l28.3,4.6c1.7,0.4,3,1.6,3.4,3.3l9.8,48.3c0.1,0.7,0.4,1.1,0.9,1.1
			c0.3,0,0.7-0.3,1-1l23-54.9c0.5-1.1,1.7-1.8,2.9-1.7c0.3,0,0.7,0,1,0.1l24.1,8.6c1.1,0.4,1.8,1.4,1.7,2.6
			C169.1,214.9,169.1,215.2,168.9,215.6z"/>
		<path class="st0" d="M267.1,314l-26.1,3.6h-0.4c-1.3,0-3-0.7-3.3-2l-4.9-15.7c-0.3-1.3-2-2.2-3.4-2.2h-0.3l-31.5,3
			c-1.5,0.2-2.9,1.2-3.6,2.6l-6.8,15.1c-0.6,1.2-1.8,2-3.2,2H183l-26.9-4.6c-1-0.1-1.7-1-1.7-2c0-0.3,0-0.6,0.1-0.9l44.7-108.5
			c0.7-1.4,2-2.3,3.6-2.4h0.1l39.2,1.1c1.5,0.1,2.8,1.2,3.2,2.7c5.9,35.2,15.8,79.3,23.8,105.1v0.6
			C269.2,312.9,268.3,313.9,267.1,314z M223,271.4l-5.2-21.8c-0.1-0.7-0.4-1-0.7-1c-0.3,0-0.6,0.3-0.9,0.9L206,272.1
			c-0.1,0.3-0.2,0.7-0.1,1c0,0.9,0.6,1.4,1.7,1.4l13.4-0.6c1.1,0,2-0.8,2-1.9c0,0,0-0.1,0-0.1V271.4z"/>
		<path class="st0" d="M364.9,286l-1.1,26.4c0,1-0.3,1.9-1.3,2c-24.1,2.9-58.8,3.9-80.3,6H282c-0.8,0.1-1.5-0.4-1.6-1.2
			c0-0.1,0-0.2,0-0.2v-0.1c2.2-27,2.9-71.4,2.9-102.3v-13.2c0-1,0.6-1.3,1.9-1.3l34.6-1h0.1c0.9,0,1.6,0.4,1.6,1.3
			c0,0.1,0,0.1-0.1,0.3c-2.4,19.1-5.7,59.9-5.7,75.7c0,3.7,0.1,6.2,0.4,6.6c1,1,7,1.4,14.8,1.4c10.5,0,24-0.6,32.3-1.9h0.3
			c0.7-0.1,1.4,0.5,1.4,1.2c0,0,0,0.1,0,0.1L364.9,286z"/>
		<path class="st0" d="M485,222.4c0.3,1.3-0.3,2.7-1.4,3.4L434.8,261l46.3,36.6c1.3,1,1.4,2.4,0.9,3l-23.7,22.6
			c-0.6,0.6-1.9,1.6-3.7-0.3l-36.3-37.5c-0.1,4.3-0.1,8.6-0.1,12.6c0,6,0.1,11.8,0.1,17.4c0,1.1-0.9,2-2,2l-28.6-0.3
			c-1.1,0-2-0.8-2-1.9c0,0,0-0.1,0-0.1c-1.2-7-2.9-27.6-2.9-44.8c0-23.7,0.4-46.3,1.7-62.9c0.1-1.1,0.9-1.9,2-2l36.6-5.3
			c1.1,0,2,0.8,2,1.8c0,0,0,0,0,0l-0.1,0.1c-0.4,9.3-2.2,21-3.4,33.6l48.1-38.5c1-0.5,2.3-0.2,3,0.7L485,222.4z"/>
		<path class="st0" d="M578.6,311l-79.3,6.6c-1.7,0.1-2.6-1.3-2.9-2.9c-2.2-14.4-2.2-33.6-2.2-48.3c0-18.1,0.3-43,3.7-60.5
			c0.3-1.7,1.3-3.2,3.2-3.2l74,1.3c1.5,0,2.7,1.2,2.7,2.7c0,0,0,0,0,0c0,4.3-2,14.7-2.6,19.5c-0.2,1.7-1.7,3.1-3.4,3.2l-37.5,2.2
			c-1.8,0.1-3.3,1.4-3.7,3.2c-0.6,2.9-2.3,10.9-2.3,13.6c0,1.3,1,2.3,2.3,2.3c0,0,0.1,0,0.1,0c13.8,0,27.9-1.9,41.7-1.9
			c1.6,0.1,2.9,1.4,2.9,3l-0.6,16.5c-0.1,1.8-1.4,3.2-3.2,3.4l-41.2,4.7c-1.7,0.1-2.9,2.7-2.9,4.5c0,2.2,0.4,5.6,3.3,5.5l46.7-1.6
			c1.6,0.1,3,1.4,3.2,3c0.3,6.9,0.9,12.9,0.9,19.8C581.5,309.5,580.2,310.8,578.6,311z"/>
		<path class="st0" d="M709.8,304.7l-19.4,16.8c-0.1,0.3-0.6,0.4-1.1,0.4c-0.3,0-0.6-0.1-0.9-0.3c-17.1-8.3-36.8-23.1-45.1-31
			l-14.8,1.1l-1.1,22.8c0,1-0.7,1.8-1.7,1.9L597,318h-0.1c-0.8,0.1-1.5-0.5-1.6-1.3l1.9-108.9c10.2-4,24.6-6.6,39.4-6.6
			c30.2,0,62.1,10.6,62.1,40.5c0,18.5-8,27.1-19.1,36.5c5.9,7.5,21,19.1,29.9,24.9c0.4,0.2,0.6,0.6,0.7,1
			C710,304.3,709.9,304.5,709.8,304.7z M650.6,235.3c-9.5,0-18.8,4.9-19.4,5.6c-0.9,1-1.6,22.7-1.6,23.6c0,0.7,2.9,1.3,6,1.3
			c15.9,0,30.7-8.9,30.7-19.4C666.4,239.5,661.4,235.3,650.6,235.3L650.6,235.3z"/>
	</g>
</g>
</svg>
